<svg width="179" height="40" viewBox="0 0 179 40" fill="none" xmlns="http://www.w3.org/2000/svg">
<path d="M111.457 14.512C113.089 14.512 114.401 15.016 115.393 16.024C116.401 17.016 116.905 18.408 116.905 20.2V28H113.545V20.656C113.545 19.616 113.281 18.824 112.753 18.28C112.225 17.72 111.505 17.44 110.593 17.44C109.681 17.44 108.953 17.72 108.409 18.28C107.881 18.824 107.617 19.616 107.617 20.656V28H104.257V20.656C104.257 19.616 103.993 18.824 103.465 18.28C102.937 17.72 102.217 17.44 101.305 17.44C100.377 17.44 99.6411 17.72 99.0971 18.28C98.5691 18.824 98.3051 19.616 98.3051 20.656V28H94.9451V14.704H98.3051V16.312C98.7371 15.752 99.2891 15.312 99.9611 14.992C100.649 14.672 101.401 14.512 102.217 14.512C103.257 14.512 104.185 14.736 105.001 15.184C105.817 15.616 106.449 16.24 106.897 17.056C107.329 16.288 107.953 15.672 108.769 15.208C109.601 14.744 110.497 14.512 111.457 14.512Z" fill="white"/>
<path d="M125.998 28.216C124.718 28.216 123.566 27.936 122.542 27.376C121.518 26.8 120.71 25.992 120.118 24.952C119.542 23.912 119.254 22.712 119.254 21.352C119.254 19.992 119.55 18.792 120.142 17.752C120.75 16.712 121.574 15.912 122.614 15.352C123.654 14.776 124.814 14.488 126.094 14.488C127.374 14.488 128.534 14.776 129.574 15.352C130.614 15.912 131.43 16.712 132.022 17.752C132.63 18.792 132.934 19.992 132.934 21.352C132.934 22.712 132.622 23.912 131.998 24.952C131.39 25.992 130.558 26.8 129.502 27.376C128.462 27.936 127.294 28.216 125.998 28.216ZM125.998 25.288C126.606 25.288 127.174 25.144 127.702 24.856C128.246 24.552 128.678 24.104 128.998 23.512C129.318 22.92 129.478 22.2 129.478 21.352C129.478 20.088 129.142 19.12 128.47 18.448C127.814 17.76 127.006 17.416 126.046 17.416C125.086 17.416 124.278 17.76 123.622 18.448C122.982 19.12 122.662 20.088 122.662 21.352C122.662 22.616 122.974 23.592 123.598 24.28C124.238 24.952 125.038 25.288 125.998 25.288Z" fill="white"/>
<path d="M142.766 14.512C144.35 14.512 145.63 15.016 146.606 16.024C147.582 17.016 148.07 18.408 148.07 20.2V28H144.71V20.656C144.71 19.6 144.446 18.792 143.918 18.232C143.39 17.656 142.67 17.368 141.758 17.368C140.83 17.368 140.094 17.656 139.55 18.232C139.022 18.792 138.758 19.6 138.758 20.656V28H135.398V14.704H138.758V16.36C139.206 15.784 139.774 15.336 140.462 15.016C141.166 14.68 141.934 14.512 142.766 14.512Z" fill="white"/>
<path d="M163.625 21.064C163.625 21.544 163.593 21.976 163.529 22.36H153.809C153.889 23.32 154.225 24.072 154.817 24.616C155.409 25.16 156.137 25.432 157.001 25.432C158.249 25.432 159.137 24.896 159.665 23.824H163.289C162.905 25.104 162.169 26.16 161.081 26.992C159.993 27.808 158.657 28.216 157.073 28.216C155.793 28.216 154.641 27.936 153.617 27.376C152.609 26.8 151.817 25.992 151.241 24.952C150.681 23.912 150.401 22.712 150.401 21.352C150.401 19.976 150.681 18.768 151.241 17.728C151.801 16.688 152.585 15.888 153.593 15.328C154.601 14.768 155.761 14.488 157.073 14.488C158.337 14.488 159.465 14.76 160.457 15.304C161.465 15.848 162.241 16.624 162.785 17.632C163.345 18.624 163.625 19.768 163.625 21.064ZM160.145 20.104C160.129 19.24 159.817 18.552 159.209 18.04C158.601 17.512 157.857 17.248 156.977 17.248C156.145 17.248 155.441 17.504 154.865 18.016C154.305 18.512 153.961 19.208 153.833 20.104H160.145Z" fill="white"/>
<path d="M178.798 14.704L170.566 34.288H166.99L169.87 27.664L164.542 14.704H168.31L171.742 23.992L175.222 14.704H178.798Z" fill="white"/>
<path d="M67.512 14.5C69.144 14.5 70.456 15.004 71.448 16.012C72.456 17.004 72.96 18.396 72.96 20.188V27.988H69.6V20.644C69.6 19.604 69.336 18.812 68.808 18.268C68.28 17.708 67.56 17.428 66.648 17.428C65.736 17.428 65.008 17.708 64.464 18.268C63.936 18.812 63.672 19.604 63.672 20.644V27.988H60.312V20.644C60.312 19.604 60.048 18.812 59.52 18.268C58.992 17.708 58.272 17.428 57.36 17.428C56.432 17.428 55.696 17.708 55.152 18.268C54.624 18.812 54.36 19.604 54.36 20.644V27.988H51V14.692H54.36V16.3C54.792 15.74 55.344 15.3 56.016 14.98C56.704 14.66 57.456 14.5 58.272 14.5C59.312 14.5 60.24 14.724 61.056 15.172C61.872 15.604 62.504 16.228 62.952 17.044C63.384 16.276 64.008 15.66 64.824 15.196C65.656 14.732 66.552 14.5 67.512 14.5Z" fill="white"/>
<path d="M88.8528 14.692L80.6208 34.276H77.0448L79.9248 27.652L74.5968 14.692H78.3648L81.7968 23.98L85.2768 14.692H88.8528Z" fill="white"/>
<path d="M34.1422 5.85781C30.3647 2.08031 25.3422 0 20 0C14.6578 0 9.63531 2.08031 5.85781 5.85781C2.08031 9.63531 0 14.6578 0 20C0 25.3422 2.08039 30.3646 5.85781 34.1422C9.63523 37.9198 14.6578 40 20 40C25.3422 40 30.3647 37.9197 34.1422 34.1422C37.9197 30.3647 40 25.3422 40 20C40 14.6578 37.9196 9.63539 34.1422 5.85781Z" fill="#33CC95"/>
<g clip-path="url(#clip0)">
<path d="M20.5714 8V33.1429" stroke="white" stroke-width="2" stroke-linecap="round" stroke-linejoin="round"/>
<path d="M26.2857 12.5714H17.7143C16.6534 12.5714 15.636 12.9929 14.8859 13.743C14.1357 14.4931 13.7143 15.5106 13.7143 16.5714C13.7143 17.6323 14.1357 18.6497 14.8859 19.3999C15.636 20.15 16.6534 20.5714 17.7143 20.5714H23.4286C24.4894 20.5714 25.5069 20.9929 26.257 21.743C27.0072 22.4932 27.4286 23.5106 27.4286 24.5714C27.4286 25.6323 27.0072 26.6497 26.257 27.3999C25.5069 28.15 24.4894 28.5714 23.4286 28.5714H13.7143" stroke="white" stroke-width="2" stroke-linecap="round" stroke-linejoin="round"/>
</g>
<defs>
<clipPath id="clip0">
<rect width="27.4286" height="27.4286" fill="white" transform="translate(6.85715 6.85714)"/>
</clipPath>
</defs>
</svg>
